<?xml version="1.0" encoding="UTF-8" standalone="no"?>
<!DOCTYPE svg PUBLIC "-//W3C//DTD SVG 1.1//EN" "http://www.w3.org/Graphics/SVG/1.1/DTD/svg11.dtd">
<svg width="100%" height="100%" viewBox="0 0 69 39" version="1.1" xmlns="http://www.w3.org/2000/svg" xmlns:xlink="http://www.w3.org/1999/xlink" xml:space="preserve" xmlns:serif="http://www.serif.com/" style="fill-rule:evenodd;clip-rule:evenodd;stroke-linejoin:round;stroke-miterlimit:2;">
    <g id="Regular-S" transform="matrix(1,0,0,1,-9.76562,52.4414)">
        <path d="M43.848,-14.16C45.02,-14.16 45.98,-14.567 46.728,-15.381L76.709,-45.557C77.49,-46.338 77.881,-47.282 77.881,-48.389C77.881,-49.561 77.498,-50.529 76.733,-51.294C75.968,-52.059 75.016,-52.441 73.877,-52.441C72.803,-52.441 71.842,-52.051 70.996,-51.27L41.553,-21.729L46.094,-21.729L16.65,-51.27C15.837,-52.051 14.893,-52.441 13.818,-52.441C12.646,-52.441 11.678,-52.059 10.913,-51.294C10.148,-50.529 9.766,-49.561 9.766,-48.389C9.766,-47.282 10.156,-46.338 10.938,-45.557L40.967,-15.381C41.781,-14.567 42.741,-14.16 43.848,-14.16Z" style="fill-rule:nonzero;fill:hsl(51, 85%, 78%);"/>
    </g>
</svg>
