<?xml version="1.0" encoding="UTF-8" standalone="no"?>
<!DOCTYPE svg PUBLIC "-//W3C//DTD SVG 1.1//EN" "http://www.w3.org/Graphics/SVG/1.1/DTD/svg11.dtd">
<svg width="100%" height="100%" viewBox="0 0 74 73" version="1.1" xmlns="http://www.w3.org/2000/svg" xmlns:xlink="http://www.w3.org/1999/xlink" xml:space="preserve" xmlns:serif="http://www.serif.com/" style="fill-rule:evenodd;clip-rule:evenodd;stroke-linejoin:round;stroke-miterlimit:2;">
    <g transform="matrix(1,0,0,1,-1413,-624)">
        <g id="Regular-S" transform="matrix(1,0,0,1,1404.34,696)">
            <path d="M76.66,-66.113C74.577,-68.164 72.127,-69.45 69.312,-69.971C66.496,-70.492 63.525,-70.752 60.4,-70.752L30.615,-70.752C27.49,-70.752 24.52,-70.492 21.704,-69.971C18.888,-69.45 16.439,-68.164 14.355,-66.113C12.305,-64.03 11.027,-61.597 10.523,-58.814C10.018,-56.03 9.766,-53.076 9.766,-49.951L9.766,-20.508C9.766,-17.35 10.018,-14.372 10.523,-11.572C11.027,-8.773 12.305,-6.348 14.355,-4.297C16.439,-2.246 18.888,-0.96 21.704,-0.439C24.52,0.081 27.49,0.342 30.615,0.342L60.4,0.342C63.525,0.342 66.496,0.081 69.312,-0.439C72.127,-0.96 74.577,-2.246 76.66,-4.297C78.711,-6.348 79.989,-8.773 80.493,-11.572C80.998,-14.372 81.25,-17.35 81.25,-20.508L81.25,-49.902C81.25,-53.06 80.998,-56.038 80.493,-58.838C79.989,-61.637 78.711,-64.063 76.66,-66.113ZM74.219,-50.977L74.219,-19.434C74.219,-17.643 74.056,-15.812 73.731,-13.94C73.405,-12.069 72.673,-10.563 71.533,-9.424C70.361,-8.285 68.84,-7.544 66.968,-7.202C65.096,-6.86 63.265,-6.689 61.475,-6.689L29.541,-6.689C27.751,-6.689 25.911,-6.86 24.023,-7.202C22.135,-7.544 20.622,-8.285 19.482,-9.424C18.343,-10.563 17.611,-12.069 17.285,-13.94C16.96,-15.812 16.797,-17.643 16.797,-19.434L16.797,-50.928C16.797,-52.751 16.96,-54.598 17.285,-56.47C17.611,-58.341 18.343,-59.847 19.482,-60.986C20.622,-62.126 22.135,-62.866 24.023,-63.208C25.911,-63.55 27.767,-63.721 29.59,-63.721L61.475,-63.721C63.265,-63.721 65.096,-63.55 66.968,-63.208C68.84,-62.866 70.361,-62.126 71.533,-60.986C72.673,-59.847 73.405,-58.341 73.731,-56.47C74.056,-54.598 74.219,-52.767 74.219,-50.977Z" style="fill:rgb(153,153,153);fill-rule:nonzero;stroke:rgb(153,153,153);stroke-width:1px;"/>
            <path d="M57.227,-25.635C58.203,-25.635 58.976,-25.96 59.546,-26.611C60.116,-27.262 60.4,-28.092 60.4,-29.102L60.4,-46.484C60.4,-47.819 60.075,-48.755 59.424,-49.292C58.773,-49.829 57.894,-50.098 56.787,-50.098L39.209,-50.098C38.2,-50.098 37.394,-49.805 36.792,-49.219C36.19,-48.633 35.889,-47.868 35.889,-46.924C35.889,-45.947 36.206,-45.166 36.841,-44.58C37.476,-43.994 38.298,-43.701 39.307,-43.701L44.873,-43.701L50.635,-44.482L44.19,-38.477L31.592,-25.879C30.908,-25.195 30.566,-24.43 30.566,-23.584C30.566,-22.607 30.859,-21.826 31.445,-21.24C32.031,-20.654 32.796,-20.361 33.74,-20.361C34.717,-20.361 35.547,-20.687 36.231,-21.338L48.779,-33.936L54.736,-40.283L54.053,-34.522L54.053,-29.004C54.053,-27.962 54.338,-27.14 54.907,-26.538C55.477,-25.936 56.25,-25.635 57.227,-25.635Z" style="fill:rgb(77,77,77);fill-rule:nonzero;"/>
        </g>
    </g>
</svg>
