<?xml version="1.0" encoding="UTF-8" standalone="no"?>
<!DOCTYPE svg PUBLIC "-//W3C//DTD SVG 1.1//EN" "http://www.w3.org/Graphics/SVG/1.1/DTD/svg11.dtd">
<svg width="100%" height="100%" viewBox="0 0 69 39" version="1.1" xmlns="http://www.w3.org/2000/svg" xmlns:xlink="http://www.w3.org/1999/xlink" xml:space="preserve" xmlns:serif="http://www.serif.com/" style="fill-rule:evenodd;clip-rule:evenodd;stroke-linejoin:round;stroke-miterlimit:2;">
    <g id="Regular-S" transform="matrix(1,0,0,1,-9.76562,56.1523)">
        <path d="M10.938,-24.756C10.156,-24.04 9.766,-23.096 9.766,-21.924C9.766,-20.752 10.148,-19.784 10.913,-19.019C11.678,-18.254 12.646,-17.871 13.818,-17.871C14.99,-17.871 15.934,-18.262 16.65,-19.043L46.094,-48.633L41.553,-48.633L70.996,-19.043C71.712,-18.262 72.673,-17.871 73.877,-17.871C75.016,-17.871 75.968,-18.254 76.733,-19.019C77.498,-19.784 77.881,-20.752 77.881,-21.924C77.881,-23.096 77.49,-24.04 76.709,-24.756L46.728,-54.932C45.98,-55.745 45.02,-56.152 43.848,-56.152C42.676,-56.152 41.715,-55.745 40.967,-54.932L10.938,-24.756Z" style="fill-rule:nonzero;fill:hsl(51, 85%, 78%);"/>
    </g>
</svg>
